<?xml version="1.0" encoding="iso-8859-1"?>
<!-- Generator: Adobe Illustrator 16.0.0, SVG Export Plug-In . SVG Version: 6.00 Build 0)  -->
<!DOCTYPE svg PUBLIC "-//W3C//DTD SVG 1.1//EN" "http://www.w3.org/Graphics/SVG/1.1/DTD/svg11.dtd">
<svg version="1.1" id="Capa_1" xmlns="http://www.w3.org/2000/svg" xmlns:xlink="http://www.w3.org/1999/xlink" x="0px" y="0px"
	 width="501.759px" height="501.759px" viewBox="0 0 501.759 501.759" style="enable-background:new 0 0 501.759 501.759;"
	 xml:space="preserve" fill="#222">
<g>
	<g id="Layer_8_11_">
		<path d="M363.654,112.78v243.946c0,5.326-4.315,9.646-9.646,9.646c-5.332,0-9.652-4.32-9.652-9.646V112.78
			c0-51.551-41.931-93.481-93.473-93.481c-51.545,0-93.476,41.937-93.476,93.481v15.936v83.587v196.196
			c0,40.784,33.18,73.974,73.961,73.974c40.793,0,73.971-33.178,73.971-73.974V245.805v-86.874c0-26.602-21.64-48.24-48.238-48.24
			c-26.61,0-48.241,21.639-48.241,48.24v216.751c0,5.325-4.315,9.646-9.649,9.646c-5.332,0-9.646-4.321-9.646-9.646V158.932
			c0-37.234,30.298-67.536,67.536-67.536c37.238,0,67.536,30.302,67.536,67.536v86.874v162.694v7.714
			c0,1.365-0.283,2.647-0.792,3.818c-5.71,45.991-44.969,81.728-92.482,81.728c-51.424,0-93.257-41.836-93.257-93.26V212.297V128.71
			v-15.936C138.111,50.597,188.698,0,250.883,0C313.063,0,363.654,50.597,363.654,112.78z"/>
	</g>
</g>
<g>
</g>
<g>
</g>
<g>
</g>
<g>
</g>
<g>
</g>
<g>
</g>
<g>
</g>
<g>
</g>
<g>
</g>
<g>
</g>
<g>
</g>
<g>
</g>
<g>
</g>
<g>
</g>
<g>
</g>
</svg>
